<?xml version="1.0" encoding="UTF-8" standalone="no"?>
<!-- Created with Inkscape (http://www.inkscape.org/) -->

<svg
   xmlns:dc="http://purl.org/dc/elements/1.1/"
   xmlns:cc="http://creativecommons.org/ns#"
   xmlns:rdf="http://www.w3.org/1999/02/22-rdf-syntax-ns#"
   xmlns:svg="http://www.w3.org/2000/svg"
   xmlns="http://www.w3.org/2000/svg"
   xmlns:sodipodi="http://sodipodi.sourceforge.net/DTD/sodipodi-0.dtd"
   xmlns:inkscape="http://www.inkscape.org/namespaces/inkscape"
   width="50mm"
   height="50mm"
   viewBox="0 0 50 50"
   version="1.1"
   id="svg129"
   inkscape:version="0.92.4 (f8dce91, 2019-08-02)"
   sodipodi:docname="logo_circle.svg">
  <defs
     id="defs123" />
  <sodipodi:namedview
     id="base"
     pagecolor="#ffffff"
     bordercolor="#666666"
     borderopacity="1.0"
     inkscape:pageopacity="0.0"
     inkscape:pageshadow="2"
     inkscape:zoom="0.35"
     inkscape:cx="-51.428571"
     inkscape:cy="560"
     inkscape:document-units="mm"
     inkscape:current-layer="layer1"
     showgrid="false"
     inkscape:window-width="1440"
     inkscape:window-height="807"
     inkscape:window-x="0"
     inkscape:window-y="0"
     inkscape:window-maximized="1" />
  <metadata
     id="metadata126">
    <rdf:RDF>
      <cc:Work
         rdf:about="">
        <dc:format>image/svg+xml</dc:format>
        <dc:type
           rdf:resource="http://purl.org/dc/dcmitype/StillImage" />
        <dc:title></dc:title>
      </cc:Work>
    </rdf:RDF>
  </metadata>
  <g
     inkscape:label="Vrstva 1"
     inkscape:groupmode="layer"
     id="layer1"
     transform="translate(0,-247)">
    <polygon
       class="st1"
       points="41.2,60 70.6,89.4 60,100 20,60 60,20 70.6,30.6 "
       id="polygon6"
       transform="matrix(0.26458333,0,0,0.26458333,4.5357145,251.64286)" />
    <g
       id="g12"
       transform="matrix(0.26458333,0,0,0.26458333,4.5357145,251.64286)">
      <path
         inkscape:connector-curvature="0"
         class="st2"
         d="M 160,80 H 145 C 145,44.2 115.9,15 80,15 V 0 c 44.1,0 80,35.9 80,80 z"
         id="path8" />
      <path
         inkscape:connector-curvature="0"
         class="st2"
         d="M 80,160 C 35.9,160 0,124.1 0,80 h 15 c 0,35.8 29.1,65 65,65 z"
         id="path10" />
    </g>
    <polygon
       class="st1"
       points="100,60 140,100 100,140 89.4,129.4 118.7,100 89.4,70.6 "
       id="polygon14"
       transform="matrix(0.26458333,0,0,0.26458333,4.5357145,251.64286)" />
  </g>
</svg>
